<svg xmlns="http://www.w3.org/2000/svg" fill="none" viewBox="0 0 120 120" id="AddHome"><path fill="#ffbf66" d="M49.6861 74.0023C49.6875 72.3454 51.0318 71.0011 52.6887 70.9997L61.0123 70.9925L61.0195 62.7082C61.021 61.0514 62.3653 59.7071 64.0221 59.7056C65.679 59.7042 67.021 61.0462 67.0195 62.703L67.0123 70.9872L75.2965 70.98C76.9533 70.9786 78.2953 72.3206 78.2939 73.9774C78.2924 75.6343 76.9481 76.9786 75.2913 76.98L67.0071 76.9872L66.9999 85.3108C66.9985 86.9677 65.6541 88.312 63.9973 88.3134C62.3404 88.3148 60.9985 86.9729 60.9999 85.316L61.0071 76.9924L52.6835 76.9997C51.0266 77.0011 49.6846 75.6591 49.6861 74.0023Z" class="color000000 svgShape"></path><path fill="#ffbf66" fill-rule="evenodd" d="M67.2343 12.9464C65.2627 11.6845 62.7373 11.6845 60.7657 12.9464L10.7657 44.9464C7.97465 46.7326 7.16011 50.4433 8.94638 53.2343C10.7326 56.0254 14.4433 56.8399 17.2343 55.0536L22 52.0036V100C22 108.837 29.1634 116 38 116H90C98.8366 116 106 108.837 106 100V52.0036L110.766 55.0536C113.557 56.8399 117.267 56.0254 119.054 53.2343C120.84 50.4433 120.025 46.7326 117.234 44.9464L67.2343 12.9464ZM86 74C86 86.1503 76.1503 96 64 96C51.8497 96 42 86.1503 42 74C42 61.8497 51.8497 52 64 52C76.1503 52 86 61.8497 86 74Z" clip-rule="evenodd" class="color000000 svgShape"></path></svg>